<svg xmlns="http://www.w3.org/2000/svg" aria-hidden="true" style="position:absolute;width:0;height:0;overflow:hidden"><defs>
<symbol id="icon-choco" viewBox="0 0 32 32"><path d="m13.822 2.413 7.527 7.536.08-.08a.854.854 0 0 1 1.185-.012l.873.873c.305.305.315.77.083 1.094l-.004.007-.143.192 6.16 6.16c.55.55.55 1.43 0 1.98l-9.43 9.43c-.55.55-1.43.55-1.98 0l-4.447-4.447a.84.84 0 0 1-1.255.071l-2.6-2.6a.854.854 0 0 1-.012-1.185l.006-.007.077-.076-7.527-7.527c-.55-.55-.55-1.43 0-1.98l9.43-9.43c.55-.55 1.43-.55 1.98 0v.001zm6.582 8.48-1.756-1.755a.59.59 0 0 0-.85 0l-3.58 3.58a.603.603 0 0 0 0 .86l1.749 1.749.61-.61-1.565-1.565 3.21-3.22 1.569 1.574.613-.613zm-5.076 5.072-1.754-1.754a.59.59 0 0 0-.85 0l-3.59 3.59c-.24.23-.24.61 0 .85l1.752 1.752.616-.616-1.57-1.564 3.22-3.21 1.564 1.563.612-.611zM8.822 8.193l3.58 3.58c.24.24.62.24.85-.01l3.58-3.58a.579.579 0 0 0 .18-.42h.01c0-.15-.06-.31-.18-.43l-3.58-3.58a.604.604 0 0 0-.86 0l-3.58 3.59c-.24.23-.24.61 0 .85zm-5.07 5.07 3.58 3.58c.24.24.62.24.85 0l3.58-3.58a.579.579 0 0 0 .18-.42v-.01.001h.01c0-.16-.06-.31-.18-.43l-3.58-3.58a.59.59 0 0 0-.85 0l-3.59 3.59c-.24.23-.24.61 0 .85zm6.933 8.754 2.362 2.363 9.636-13.04-.655-.655-11.343 11.332z" style="fill:var(--color4, #000)"/><path fill="#fd9222" d="m13.822 2.413 7.527 7.536.08-.08a.854.854 0 0 1 1.185-.012l.873.873c.305.305.315.77.083 1.094l-.004.007-.143.192 6.16 6.16c.55.55.55 1.43 0 1.98l-9.43 9.43c-.55.55-1.43.55-1.98 0l-4.447-4.447a.84.84 0 0 1-1.255.071l-2.6-2.6a.854.854 0 0 1-.012-1.185l.006-.007.077-.076-7.527-7.527c-.55-.55-.55-1.43 0-1.98l9.43-9.43c.55-.55 1.43-.55 1.98 0v.001zm6.582 8.48-1.756-1.755a.59.59 0 0 0-.85 0l-3.58 3.58a.603.603 0 0 0 0 .86l1.749 1.749.61-.61-1.565-1.565 3.21-3.22 1.569 1.574.613-.613zm-5.076 5.072-1.754-1.754a.59.59 0 0 0-.85 0l-3.59 3.59c-.24.23-.24.61 0 .85l1.752 1.752.616-.616-1.57-1.564 3.22-3.21 1.564 1.563.612-.611zM8.822 8.193l3.58 3.58c.24.24.62.24.85-.01l3.58-3.58a.579.579 0 0 0 .18-.42h.01c0-.15-.06-.31-.18-.43l-3.58-3.58a.604.604 0 0 0-.86 0l-3.58 3.59c-.24.23-.24.61 0 .85zm-5.07 5.07 3.58 3.58c.24.24.62.24.85 0l3.58-3.58a.579.579 0 0 0 .18-.42v-.01.001h.01c0-.16-.06-.31-.18-.43l-3.58-3.58a.59.59 0 0 0-.85 0l-3.59 3.59c-.24.23-.24.61 0 .85zm6.933 8.754 2.362 2.363 9.636-13.04-.655-.655-11.343 11.332z" style="fill:var(--color2, #fd9222)"/></symbol>
<symbol id="icon-close" viewBox="0 0 32 32"><path d="M32 3.223 28.777 0 16 12.777 3.223 0 0 3.223 12.777 16 0 28.777 3.223 32 16 19.223 28.777 32 32 28.777 19.223 16 32 3.223z"/></symbol>
<symbol id="icon-arrow-down" viewBox="0 0 32 32"><path d="M16.541 17.066c-0.138 0.139-0.33 0.225-0.541 0.225s-0.403-0.086-0.541-0.225l-0-0-3.489-3.497c-0.14-0.156-0.343-0.253-0.568-0.253-0.422 0-0.763 0.342-0.763 0.763 0 0.223 0.096 0.424 0.249 0.564l0.001 0.001 3.497 3.497c0.414 0.413 0.985 0.669 1.615 0.669s1.202-0.256 1.615-0.669l3.497-3.497c0.137-0.138 0.221-0.328 0.221-0.537 0-0.421-0.341-0.762-0.762-0.762-0.212 0-0.403 0.086-0.541 0.225l-0 0-3.489 3.497z"></path></symbol>
<symbol id="icon-Checkmark" viewBox="0 0 32 32"><path d="M14.318 23.606c.698 0 1.224-.267 1.581-.803l7.725-11.64c.128-.19.224-.376.285-.56.061-.19.091-.371.091-.544 0-.48-.168-.877-.502-1.189a1.685 1.685 0 0 0-1.177-.477l-.046.001h.002c-.336 0-.619.067-.854.2-.229.128-.446.352-.653.67l-6.485 10.184-3.248-3.891a1.67 1.67 0 0 0-1.293-.611h-.03.002c-.496 0-.906.16-1.23.477a1.6 1.6 0 0 0-.484 1.199v-.002c0 .218.032.424.101.619.072.19.203.387.394.594l4.309 5.08c.397.464.901.694 1.515.694z"/></symbol>
<symbol id="icon-chocolate" viewBox="0 0 32 32"><path fill="#fcf1e0" d="M3.944 20.076 14.72 2.651l.64-.673 8.236 5.489.057 3.315 2.009 3.28-8.88 14.076-12.84-8.063z" style="fill:var(--color1, #fcf1e0)"/><path fill="none" stroke="#fd9222" stroke-linecap="round" stroke-linejoin="round" stroke-width="2.667" d="M21.635 23.88 7.448 15.013M11.363 8.6l14.185 8.864m-14.919 8.4L22.365 6.613m4.811 8.176c-3.04-1.9-4.233-3.384-2.277-6.592l-9.627-6.016L3.537 21.432l14.185 8.864 9.453-15.507z" style="stroke:var(--color2, #fd9222)"/></symbol>
<symbol id="icon-burger_menu" viewBox="0 0 32 32"><path d="M4.8 8a1.6 1.6 0 0 1 1.6-1.6h19.2a1.6 1.6 0 1 1 0 3.2H6.4A1.6 1.6 0 0 1 4.8 8zm0 8a1.6 1.6 0 0 1 1.6-1.6h19.2a1.6 1.6 0 1 1 0 3.2H6.4A1.6 1.6 0 0 1 4.8 16zm0 8a1.6 1.6 0 0 1 1.6-1.6h19.2a1.6 1.6 0 1 1 0 3.2H6.4A1.6 1.6 0 0 1 4.8 24z"/></symbol>
<symbol id="icon-ic_baseline-error-outline" viewBox="0 0 32 32"><path fill="#e74a3b" d="M14.667 20h2.667v2.667h-2.667V20zm0-10.667h2.667v8h-2.667v-8zm1.319-6.666C8.628 2.667 2.667 8.64 2.667 16s5.961 13.333 13.319 13.333c7.374 0 13.348-5.973 13.348-13.333S23.361 2.667 15.986 2.667zm.014 24c-5.893 0-10.667-4.773-10.667-10.667S10.106 5.333 16 5.333 26.667 10.106 26.667 16 21.894 26.667 16 26.667z" style="fill:var(--color3, #e74a3b)"/></symbol>
<symbol id="icon-icon-coin" viewBox="0 0 32 32"><path fill="#fd9222" d="M16 2.667c-7.333 0-13.333 6-13.333 13.333s6 13.333 13.333 13.333 13.333-6 13.333-13.333S23.333 2.667 16 2.667zm0 24c-5.867 0-10.667-4.8-10.667-10.667S10.133 5.333 16 5.333 26.667 10.133 26.667 16 21.867 26.667 16 26.667z" style="fill:var(--color2, #fd9222)"/><path fill="#fd9222" d="M17.733 14.667h-3.466c-.667 0-1.2-.534-1.2-1.2 0-.667.533-1.2 1.2-1.2H19.2c.8 0 1.333-.534 1.333-1.334S20 9.6 19.2 9.6h-1.867V8.4c0-.8-.533-1.333-1.333-1.333S14.667 7.6 14.667 8.4v1.2h-.4a3.87 3.87 0 0 0-3.867 3.867 3.87 3.87 0 0 0 3.867 3.866H17.6c.667 0 1.2.534 1.2 1.2 0 .667-.533 1.2-1.2 1.2h-4.933c-.8 0-1.334.534-1.334 1.334s.534 1.333 1.334 1.333h2v1.2c0 .8.533 1.333 1.333 1.333s1.333-.533 1.333-1.333v-1.2h.4a3.87 3.87 0 0 0 3.867-3.867 3.87 3.87 0 0 0-3.867-3.866z" style="fill:var(--color2, #fd9222)"/></symbol>
<symbol id="icon-facebook" viewBox="0 0 32 32"><path d="M19.52 4.64h.96v3.6h-1.2c-.48 0-.96 0-1.2.24s-.24.48-.24 1.04v1.28h2.64v3.04h-2.64v13.2h-4.08V13.76H11.6v-3.04h2.16V9.68c0-1.76.24-3.04.72-3.6.72-1.04 2.16-1.52 4.32-1.52.24.08.48.08.72.08z"/></symbol>
<symbol id="icon-instagram" viewBox="0 0 32 32"><path d="M28.717 10.756a9.258 9.258 0 0 0-.617-3.209l.021.063a6.586 6.586 0 0 0-3.698-3.721l-.044-.015a9.211 9.211 0 0 0-3.097-.596h-.01c-1.368-.061-1.801-.079-5.273-.079s-3.916 0-5.275.079a9.378 9.378 0 0 0-3.171.618l.064-.022A6.58 6.58 0 0 0 3.89 7.566l-.015.044a9.114 9.114 0 0 0-.595 3.092v.009c-.061 1.367-.08 1.8-.08 5.265 0 3.467 0 3.908.08 5.265a9.336 9.336 0 0 0 .616 3.168l-.022-.064a6.585 6.585 0 0 0 3.701 3.719l.044.015c.989.387 2.04.605 3.107.64 1.368.06 1.801.079 5.273.079s3.916 0 5.275-.08a9.377 9.377 0 0 0 3.171-.616l-.064.022a6.591 6.591 0 0 0 3.728-3.692l.016-.044a9.15 9.15 0 0 0 .595-3.095v-.009c.061-1.365.08-1.799.08-5.267-.003-3.464-.003-3.904-.083-5.263zM15.989 22.531h-.005a6.565 6.565 0 0 1-6.565-6.56 6.565 6.565 0 0 1 6.565-6.561H15.997a6.567 6.567 0 0 1 6.567 6.56 6.567 6.567 0 0 1-6.567 6.561h-.007zm6.835-11.835a1.53 1.53 0 1 1 0-3.06 1.53 1.53 0 1 1 0 3.06z"/><path d="M15.992 19.976a4.004 4.004 0 0 0 0-8.008 4.004 4.004 0 0 0 0 8.008z"/></symbol>
<symbol id="icon-icon-spoon" viewBox="0 0 32 32"><path fill="#fd9222" d="M15.451 14.106a5.127 5.127 0 0 1-1.176-3.278v-.004c0-4.324 5.181-8.642 10.362-8.642a5.184 5.184 0 0 1 5.181 5.182c0 5.182-4.317 10.364-8.646 10.364h-.003a5.13 5.13 0 0 1-3.287-1.184l.009.007L5.133 29.312a1.73 1.73 0 0 1-2.444-2.446l-.001.001 12.764-12.761z" style="fill:var(--color2, #fd9222)"/></symbol>
<symbol id="icon-play3" viewBox="0 0 32 32"><path d="M6 4l20 12-20 12z"></path></symbol>
<symbol id="icon-arrow-right2" viewBox="0 0 32 32"><path d="M19.414 27.414l10-10c0.781-0.781 0.781-2.047 0-2.828l-10-10c-0.781-0.781-2.047-0.781-2.828 0s-0.781 2.047 0 2.828l6.586 6.586h-19.172c-1.105 0-2 0.895-2 2s0.895 2 2 2h19.172l-6.586 6.586c-0.39 0.39-0.586 0.902-0.586 1.414s0.195 1.024 0.586 1.414c0.781 0.781 2.047 0.781 2.828 0z"></path></symbol>
<symbol id="icon-Property-1Default" viewBox="0 0 32 32"><path stroke-width="1.6" d="M9.6.8h12.8a8.8 8.8 0 0 1 8.8 8.8v12.8a8.8 8.8 0 0 1-8.8 8.8H9.6a8.8 8.8 0 0 1-8.8-8.8V9.6A8.8 8.8 0 0 1 9.6.8z"/></symbol>
<symbol id="icon-twitter" viewBox="0 0 32 32"><path d="M29.333 7.899c-.917.411-1.98.714-3.094.857l-.057.006a5.462 5.462 0 0 0 2.394-2.983l.011-.038a10.706 10.706 0 0 1-3.397 1.312l-.07.012a5.465 5.465 0 0 0-9.457 3.732v.006c0 .432.037.849.128 1.245-4.545-.221-8.567-2.4-11.268-5.717a5.445 5.445 0 0 0-.751 2.762v.001c0 1.893.976 3.572 2.428 4.543a5.378 5.378 0 0 1-2.495-.687l.027.014v.061a5.494 5.494 0 0 0 4.344 5.364l.036.006c-.417.114-.896.18-1.39.18h-.045.002c-.351 0-.703-.02-1.035-.093.708 2.165 2.717 3.757 5.108 3.809a10.915 10.915 0 0 1-6.765 2.331h-.014.001-.072c-.435 0-.865-.027-1.286-.08l.05.005A15.246 15.246 0 0 0 11.003 27h.053-.003c10.06 0 15.56-8.333 15.56-15.557 0-.24-.008-.475-.02-.707a10.991 10.991 0 0 0 2.715-2.797l.025-.039z"/></symbol>
<symbol id="icon-user" viewBox="0 0 24 32"><path d="M12 16c2.209 0 4-1.791 4-4s-1.791-4-4-4v0c-2.209 0-4 1.791-4 4s1.791 4 4 4v0zM12 18c-2.671 0-8 1.34-8 4v1c0 0.551 0.449 1 1 1h14c0.549 0 1-0.449 1-1v-1c0-2.66-5.331-4-8-4z"></path></symbol>
<symbol id="icon-envelop" viewBox="0 0 24 32"><path d="M20 8h-16c-1.1 0-1.989 0.9-1.989 2l-0.011 12c0 1.1 0.9 2 2 2h16c1.1 0 2-0.9 2-2v-12c0-1.1-0.9-2-2-2zM19.6 12.251l-7.069 4.419c-0.151 0.094-0.334 0.15-0.531 0.15s-0.38-0.056-0.535-0.153l0.004 0.002-7.069-4.419c-0.252-0.15-0.418-0.422-0.418-0.731 0-0.469 0.38-0.849 0.849-0.849 0.174 0 0.337 0.053 0.471 0.143l6.697 4.187 6.7-4.191c0.132-0.088 0.294-0.141 0.468-0.141 0.469 0 0.849 0.38 0.849 0.849 0 0.31-0.166 0.581-0.414 0.729l-0.004 0.002z"></path></symbol>
<symbol id="icon-phone" viewBox="0 0 24 32"><path d="M19.635 18.487l-2.451-0.28c-0.067-0.008-0.145-0.013-0.223-0.013-0.531 0-1.012 0.215-1.36 0.564l-1.775 1.775c-2.752-1.42-4.94-3.607-6.322-6.278l-0.038-0.081 1.787-1.785c0.347-0.347 0.562-0.827 0.562-1.358 0-0.079-0.005-0.156-0.014-0.233l0.001 0.009-0.28-2.432c-0.115-0.966-0.93-1.708-1.918-1.708-0.001 0-0.002 0-0.002 0h-1.669c-1.091 0-1.997 0.907-1.929 1.997 0.511 8.24 7.101 14.821 15.332 15.333 1.091 0.067 1.997-0.84 1.997-1.931v-1.669c0-0.003 0-0.007 0-0.011 0-0.981-0.739-1.789-1.69-1.899l-0.009-0.001z"></path></symbol>
<symbol id="icon-person-black-18dp-1" viewBox="0 0 32 32"><path d="M16 16a5.333 5.333 0 1 0 0-10.666A5.333 5.333 0 1 0 16 16zm0 2.667c-3.561 0-10.667 1.787-10.667 5.333v1.333c0 .732.599 1.333 1.333 1.333h18.667c.732 0 1.333-.601 1.333-1.333V24c0-3.547-7.108-5.333-10.667-5.333z"/></symbol>
<symbol id="icon-phone-black-18dp-1" viewBox="0 0 32 32"><path d="m24.882 19.774-3.268-.373a2.552 2.552 0 0 0-2.11.732l-2.366 2.368c-3.669-1.894-6.585-4.81-8.427-8.372l-.051-.108 2.38-2.377a2.552 2.552 0 0 0 .731-2.122l.001.012-.373-3.243a2.578 2.578 0 0 0-2.557-2.276H6.613c-1.454 0-2.663 1.209-2.574 2.663.683 10.987 9.47 19.76 20.444 20.443 1.452.089 2.663-1.12 2.663-2.574v-2.238a2.549 2.549 0 0 0-2.253-2.532l-.012-.001z"/></symbol>
<symbol id="icon-smartphone-1" viewBox="0 0 23 32"><path fill="#757575" d="M19.429 0h-16C1.539 0 0 1.346 0 3.001v25.998C0 30.656 1.538 32 3.429 32h16c1.89 0 3.429-1.346 3.429-3.001V3.001C22.858 1.346 21.32 0 19.429 0zm-16 2h16c.631 0 1.143.448 1.143 1.001V24H2.286V2.999c0-.549.512-.999 1.143-.999zm16 28h-16c-.631 0-1.143-.448-1.143-1.001V26h18.286v3.001c0 .549-.512.999-1.143.999z" style="fill:var(--color3, #757575)"/><path fill="#757575" d="M5.381 27.291a.915.915 0 0 1 .002 1.416l-.002.001a1.257 1.257 0 0 1-1.62-.001l.002.002a.915.915 0 0 1-.002-1.416l.002-.001a1.257 1.257 0 0 1 1.62.001l-.002-.002z" style="fill:var(--color3, #757575)"/></symbol>
<symbol id="icon-smartphone" viewBox="0 0 20 32"><path d="M17 0H3C1.346 0 0 1.346 0 3v26c0 1.654 1.346 3 3 3h14c1.654 0 3-1.346 3-3V3c0-1.654-1.346-3-3-3zM3 2h14a1 1 0 0 1 1 1v21H2V3a1 1 0 0 1 1-1zm14 28H3a1 1 0 0 1-1-1v-3h16v3a1 1 0 0 1-1 1z"/><path d="M4.708 27.478a.889.889 0 0 1 .001 1.319l-.001.001a1.048 1.048 0 0 1-1.417 0l.001.001a.889.889 0 0 1-.001-1.319l.001-.001a1.048 1.048 0 0 1 1.417 0l-.001-.001z"/></symbol>
<symbol id="icon-email-black-18dp-1" viewBox="0 0 32 32"><path d="M26.667 5.333H5.334A2.662 2.662 0 0 0 2.682 8l-.014 16c0 1.467 1.2 2.667 2.667 2.667h21.333c1.467 0 2.667-1.2 2.667-2.667V8c0-1.467-1.2-2.667-2.667-2.667zm-.534 5.668-9.426 5.892a1.343 1.343 0 0 1-1.421-.004l.006.003L5.866 11A1.133 1.133 0 1 1 7.07 9.083l-.004-.003 8.933 5.586 8.933-5.588a1.132 1.132 0 1 1 1.204 1.916l-.005.003z"/></symbol>
<symbol id="icon-envelope-hover" viewBox="0 0 43 32"><path d="M38.667 0H4C1.795 0 0 1.795 0 4v24c0 2.205 1.795 4 4 4h34.667c2.205 0 4-1.795 4-4V4c0-2.205-1.795-4-4-4zm0 2.667c.181 0 .355.037.512.104L21.334 18.238 3.489 2.771c.151-.065.327-.104.512-.104h34.667zm0 26.666H4A1.333 1.333 0 0 1 2.667 28V5.587l17.792 15.421c.233.203.539.327.875.327s.642-.124.876-.328l-.002.001L40 5.587V28c0 .736-.597 1.333-1.333 1.333z"/></symbol>
<symbol id="icon-envelope" viewBox="0 0 45 32"><path fill="#757575" d="M40.602 0h-36.4C1.885 0 0 1.792 0 4v24c0 2.208 1.885 4 4.202 4h36.4c2.31 0 4.198-1.792 4.198-4V4c0-2.208-1.885-4-4.202-4zm0 2.666c.189 0 .368.038.534.106L22.4 18.238 3.664 2.772c.158-.066.342-.104.534-.106h36.401zm0 26.668H4.17c-.744 0-1.35-.593-1.369-1.333V5.586l18.682 15.421a1.435 1.435 0 0 0 1.839-.002l-.002.002L42.002 5.586v22.413c0 .736-.627 1.334-1.402 1.334z" style="fill:var(--color3, #757575)"/></symbol>
<symbol id="icon-facebook" viewBox="0 0 32 32"><path d="M21.328 5.312h2.923V.224A36.478 36.478 0 0 0 20.144 0h-.157.008c-4.213 0-7.099 2.65-7.099 7.52V12H8.25v5.688h4.646V32h5.699V17.69h4.459l.709-5.688h-5.17V8.08c0-1.643.443-2.768 2.734-2.768z"/></symbol>
<symbol id="icon-icon-check" viewBox="0 0 34 32"><path fill="#2196f3" d="M4.267 0h25.6a4.267 4.267 0 0 1 4.267 4.267v23.467a4.267 4.267 0 0 1-4.267 4.267h-25.6A4.267 4.267 0 0 1 0 27.734V4.267A4.267 4.267 0 0 1 4.267 0z" style="fill:var(--color2, #2196f3)"/><path fill="#fff" stroke="#fff" stroke-width=".427" d="m8.442 16.538-.147-.141-.147.139-2.057 1.95.162.156 7.605 7.253.147-.141 16.171-15.426-.162-.154-2.029-1.935-.147.141-13.98 13.325-5.417-5.167z" style="fill:var(--color5, #fff);stroke:var(--color5, #fff)"/></symbol>
</defs></svg>